<svg width="645" height="130" viewBox="0 0 645 130" fill="none" xmlns="http://www.w3.org/2000/svg">
<path d="M166.2 20.3H133V57.9L155.1 77.9V41.4H167C174.5 41.4 178.2 45.1 178.2 50.9V78.8C178.2 84.6 174.7 88.5 167 88.5H133V109.7H166.2C184 109.8 200.7 100.9 200.7 80.3V50.2C200.7 29.4 184 20.3 166.2 20.3ZM340.3 80.4V49.6C340.3 38.5 360.1 35.9 366.1 47.1L384.4 39.6C377.3 23.7 364.1 19 353.2 19C335.4 19 317.8 29.4 317.8 49.6V80.4C317.8 100.7 335.4 111 352.8 111C364 111 377.4 105.4 384.8 90.9L365.2 81.8C360.4 94.2 340.3 91.2 340.3 80.4ZM279.7 53.8C272.8 52.3 268.2 49.8 267.9 45.5C268.3 35.1 284.2 34.8 293.5 44.7L308.2 33.3C299 22 288.6 19 277.8 19C261.5 19 245.7 28.2 245.7 45.8C245.7 62.9 258.7 72 273 74.2C280.3 75.2 288.4 78.1 288.2 83.2C287.6 92.8 268 92.3 259.1 81.4L245 94.8C253.3 105.5 264.6 111 275.2 111C291.5 111 309.6 101.5 310.3 84.2C311.3 62.2 295.5 56.7 279.7 53.8ZM212.8 109.7H235.2V20.3H212.8V109.7ZM590.5 20.3H557.3V57.9L579.4 77.9V41.4H591.2C598.7 41.4 602.4 45.1 602.4 50.9V78.8C602.4 84.6 598.9 88.5 591.2 88.5H557.2V109.7H590.4C608.2 109.8 624.9 100.9 624.9 80.3V50.2C625 29.4 608.3 20.3 590.5 20.3ZM427.6 19C409.2 19 390.9 29.1 390.9 49.7V80.3C390.9 100.8 409.3 111 427.8 111C446.2 111 464.5 100.8 464.5 80.3V49.7C464.5 29.2 446 19 427.6 19ZM442 80.3C442 86.7 434.8 90 427.7 90C420.5 90 413.3 86.8 413.3 80.3V49.7C413.3 43.1 420.3 39.6 427.3 39.6C434.6 39.6 442 42.8 442 49.7V80.3ZM544.8 49.7C544.3 28.7 530.1 20.3 511.8 20.3H476.3V109.8H499V81.3H503L523.6 109.7H551.6L527.4 79C538.2 75.6 544.8 66.3 544.8 49.7ZM512.2 61.8H499V41.4H512.2C526.4 41.4 526.4 61.8 512.2 61.8Z" fill="#DADCE1"/>
<path d="M2.76 51.44V80H9.04V68.2H21V63.32H9.04V56.72H22.84V51.44H2.76ZM33.9109 65.84C33.9109 64.5867 34.0443 63.3733 34.3109 62.2C34.6043 61.0267 35.0576 59.9867 35.6709 59.08C36.2843 58.1467 37.0843 57.4133 38.0709 56.88C39.0576 56.32 40.2576 56.04 41.6709 56.04C43.0843 56.04 44.2843 56.32 45.2709 56.88C46.2576 57.4133 47.0576 58.1467 47.6709 59.08C48.2843 59.9867 48.7243 61.0267 48.9909 62.2C49.2843 63.3733 49.4309 64.5867 49.4309 65.84C49.4309 67.04 49.2843 68.2133 48.9909 69.36C48.7243 70.48 48.2843 71.4933 47.6709 72.4C47.0576 73.3067 46.2576 74.04 45.2709 74.6C44.2843 75.1333 43.0843 75.4 41.6709 75.4C40.2576 75.4 39.0576 75.1333 38.0709 74.6C37.0843 74.04 36.2843 73.3067 35.6709 72.4C35.0576 71.4933 34.6043 70.48 34.3109 69.36C34.0443 68.2133 33.9109 67.04 33.9109 65.84ZM27.6309 65.84C27.6309 67.92 27.9509 69.8667 28.5909 71.68C29.2309 73.4667 30.1509 75.0267 31.3509 76.36C32.5509 77.6933 34.0176 78.7467 35.7509 79.52C37.5109 80.2667 39.4843 80.64 41.6709 80.64C43.8843 80.64 45.8576 80.2667 47.5909 79.52C49.3243 78.7467 50.7909 77.6933 51.9909 76.36C53.1909 75.0267 54.1109 73.4667 54.7509 71.68C55.3909 69.8667 55.7109 67.92 55.7109 65.84C55.7109 63.7067 55.3909 61.7333 54.7509 59.92C54.1109 58.08 53.1909 56.48 51.9909 55.12C50.7909 53.76 49.3243 52.6933 47.5909 51.92C45.8576 51.1467 43.8843 50.76 41.6709 50.76C39.4843 50.76 37.5109 51.1467 35.7509 51.92C34.0176 52.6933 32.5509 53.76 31.3509 55.12C30.1509 56.48 29.2309 58.08 28.5909 59.92C27.9509 61.7333 27.6309 63.7067 27.6309 65.84ZM68.6837 64.36V56.32H75.5638C77.0038 56.32 78.0838 56.64 78.8038 57.28C79.5238 57.8933 79.8838 58.8933 79.8838 60.28C79.8838 61.72 79.5238 62.76 78.8038 63.4C78.0838 64.04 77.0038 64.36 75.5638 64.36H68.6837ZM62.4037 51.44V80H68.6837V68.84H74.9637C76.5371 68.84 77.6704 69.1867 78.3638 69.88C79.0571 70.5733 79.5104 71.6667 79.7238 73.16C79.8838 74.3067 80.0038 75.5067 80.0838 76.76C80.1637 78.0133 80.3771 79.0933 80.7237 80H87.0037C86.7104 79.6 86.4838 79.12 86.3238 78.56C86.1904 77.9733 86.0838 77.36 86.0038 76.72C85.9504 76.08 85.9104 75.4533 85.8837 74.84C85.8571 74.2267 85.8304 73.6933 85.8038 73.24C85.7504 72.52 85.6437 71.8 85.4838 71.08C85.3504 70.36 85.1238 69.7067 84.8037 69.12C84.4838 68.5067 84.0704 67.9867 83.5638 67.56C83.0571 67.1067 82.4171 66.7733 81.6437 66.56V66.48C83.2437 65.84 84.3904 64.9067 85.0838 63.68C85.8038 62.4533 86.1638 61 86.1638 59.32C86.1638 58.2267 85.9638 57.2133 85.5637 56.28C85.1904 55.32 84.6304 54.48 83.8837 53.76C83.1638 53.04 82.2838 52.48 81.2438 52.08C80.2304 51.6533 79.0838 51.44 77.8038 51.44H62.4037Z" fill="#DADCE1"/>
</svg>
